# xmcd CD Database Entry
#
# Track frame offsets:
# 150
# 8533
# 26768
# 43766
# 58552
# 68070
#
# Disc length: 1048 seconds
#
# Revision: 2
# Processed by: cddbd v1.5PL3 Copyright (c) Steve Scherf et al.
# Submitted via: tcd 2.0b
#
DISCID=44041606
DTITLE=HEAVY HITTER? and The Friends - ??????????
DYEAR=1900
DGENRE=
TTITLE0=??????
TTITLE1=???????
TTITLE2=
TTITLE3=??????????
TTITLE4=???????
TTITLE5=????????1
EXTD=
EXTT0=
EXTT1=
EXTT2=
EXTT3=
EXTT4=
EXTT5=
PLAYORDER=
